<svg width="145" height="145" viewBox="0 0 145 145" fill="none" xmlns="http://www.w3.org/2000/svg">
<rect width="145" height="145" fill="#E5E5E5"/>
<path d="M32.0588 77.7407L32.5647 16.5556V15L27 18.1111C27.1686 36.4321 27.5059 74.2148 27.5059 78.7778C27.5059 83.3407 31.8902 84.8272 34.0824 85H63.4235C67.8753 85 69.6627 81.1975 70 79.2963V49.7407H63.9294V76.1852C63.9294 79.5037 62.2431 80.679 61.4 80.8519H37.1176C33.0706 80.8519 32.0588 78.7778 32.0588 77.7407Z" fill="#64FFDA"/>
<path d="M83.3828 56.1897H139L137.523 51H83.875C77.9688 51 76.1641 55.8437 76 58.2655V61.8983C76.7875 67.2956 79.9375 69.3368 81.4141 69.6828C89.4531 69.8558 106.023 70.098 107.992 69.6828C109.961 69.2676 111.109 71.2397 111.438 72.2776V77.9863C111.438 80.4773 109.141 81.792 107.992 82.138H77.4766V85.7708C86.5 85.9438 105.63 86.1859 109.961 85.7708C114.292 85.3556 116.031 81.792 116.359 80.0621C116.523 78.8512 116.753 75.3914 116.359 71.2397C115.966 67.088 111.93 66.05 109.961 66.05H83.3828C80.2328 60.6528 82.0703 57.2276 83.3828 56.1897Z" fill="#64FFDA"/>
<g filter="url(#filter0_d)">
<path fill-rule="evenodd" clip-rule="evenodd" d="M72.5 137C110.332 137 141 106.332 141 68.5C141 66.3078 140.897 64.1396 140.696 62H135.671C135.889 64.1371 136 66.3056 136 68.5C136 103.57 107.57 132 72.5 132C37.4299 132 9 103.57 9 68.5C9 48.3606 18.3755 30.411 33 18.7776V12.5288C15.4553 24.9331 4 45.3788 4 68.5C4 106.332 34.6685 137 72.5 137ZM39 8.73652C48.9041 3.17291 60.3315 0 72.5 0C106.062 0 133.987 24.1374 139.862 56H134.77C128.964 26.916 103.291 5 72.5 5C60.204 5 48.7243 8.49485 39 14.5454V8.73652Z" fill="#64FFDA"/>
</g>
<defs>
<filter id="filter0_d" x="0" y="0" width="145" height="145" filterUnits="userSpaceOnUse" color-interpolation-filters="sRGB">
<feFlood flood-opacity="0" result="BackgroundImageFix"/>
<feColorMatrix in="SourceAlpha" type="matrix" values="0 0 0 0 0 0 0 0 0 0 0 0 0 0 0 0 0 0 127 0"/>
<feOffset dy="4"/>
<feGaussianBlur stdDeviation="2"/>
<feColorMatrix type="matrix" values="0 0 0 0 0 0 0 0 0 0 0 0 0 0 0 0 0 0 0.25 0"/>
<feBlend mode="normal" in2="BackgroundImageFix" result="effect1_dropShadow"/>
<feBlend mode="normal" in="SourceGraphic" in2="effect1_dropShadow" result="shape"/>
</filter>
</defs>
</svg>
